<svg width="512" height="512" viewBox="0 0 512 512" fill="none" xmlns="http://www.w3.org/2000/svg">
  <rect width="512" height="512" rx="112" fill="#112240"/>
  <path
    d="M57.024 0h-3.04c-4.297 0-8.268 2.295-10.424 6.024L1.625 78.562c-2.169 3.751-2.169 8.38 0 12.131l40.546 70.139-1.582-32.281c-.014-.294.063-.584.194-.848.9-1.81.841-3.964-.18-5.73L19.014 84.628 52.21 27.205l17.865 30.087-14.207 24.689c-1.076 1.87-1.076 4.174 0 6.045l14.429 25.075-24.307 40.937.16.095-3.978 6.699 1.388 2.4c2.156 3.729 6.127 6.024 10.424 6.024h83.892c4.297 0 8.268-2.295 10.424-6.024l40.199-69.537-27.536 17.893c-.243.158-.527.237-.817.259-1.976.146-3.765 1.26-4.768 2.995l-20.973 36.28H68.761l17.5-29.473h27.652c2.153 0 4.142-1.152 5.218-3.023l14.347-24.931h55.021l1.736-3.002c2.168-3.751 2.168-8.38 0-12.131L148.301 6.024C146.145 2.295 142.174 0 137.877 0H57.024zm29.792 14.97c.257.129.468.333.632.57 1.12 1.618 2.965 2.594 4.947 2.594h42.01l33.198 57.427h-34.558l-13.914-24.179c-1.076-1.871-3.065-3.023-5.218-3.023H85.81L61.518 7.448l-.053.032L57.024 0l29.792 14.97z"
    fill="#FFC23D"
    transform="translate(69 90) scale(1.95)"
  />
</svg>
